<svg width="30" height="30" viewBox="0 0 30 30" xmlns="http://www.w3.org/2000/svg"><title>cloud-download</title><path d="M19.14 22.377l-3.17 3.176-.04-11.835c0-.72-.584-1.327-1.303-1.327h-.004c-.72 0-1.303.616-1.3 1.336l.036 11.795-3.155-3.15c-.51-.51-1.335-.506-1.844.003-.51.51-.51 1.337 0 1.847l5.39 5.397c.245.245.577.383.923.383.346 0 .678-.137.923-.382l5.39-5.396c.51-.51.51-1.336 0-1.846s-1.336-.508-1.845 0m10.193-7.893c-.2 2.794-2.36 5.796-6.635 5.796-1.944 0-2.97-.017-2.97-.017-.722-.006-1.3-.61-1.296-1.33.006-.716.59-1.324 1.305-1.324h.01c.003 0 1.023.037 2.95.037 2.62 0 3.913-1.664 4.033-3.345.123-1.725-.965-3.64-3.673-4.03-.362-.052-.686-.254-.892-.556-.207-.302-.277-.677-.193-1.033.345-1.473-.017-2.633-.993-3.184-.82-.463-2.132-.455-3.216.604-.294.287-.705.42-1.112.355-.407-.064-.76-.315-.952-.678-1.823-3.438-4.66-3.62-6.538-2.733-1.798.85-3.228 2.975-2.118 5.63.142.34.134.723-.022 1.057-.156.333-.446.584-.798.692-3.764 1.16-3.69 3.674-3.58 4.418.21 1.387 1.316 2.788 3.027 2.788l3.97.013c.72.003 1.302.577 1.298 1.297-.004.72-.587 1.27-1.304 1.27h-.007l-3.963.008c-2.805 0-5.163-2.08-5.6-4.984C-.274 12.995.662 10 4.22 8.4 3.412 4.904 5.39 1.948 8.046.69c2.743-1.298 6.602-.94 9.168 2.595 1.596-.888 3.483-.94 5.046-.06 1.336.754 2.56 2.357 2.44 4.743 3.42 1.034 4.814 3.973 4.633 6.515" fill="#FFF" fill-rule="evenodd"/></svg>