<svg width="33" height="32" viewBox="0 0 33 32" xmlns="http://www.w3.org/2000/svg" xmlns:xlink="http://www.w3.org/1999/xlink"><title>icon</title><defs><path id="a" d="M32.58 31.774V0H0v31.774h32.58z"/></defs><g fill="none" fill-rule="evenodd"><mask id="b" fill="#fff"><use xlink:href="#a"/></mask><path d="M16.29 0C7.293 0 0 7.293 0 16.29c0 7.197 4.667 13.303 11.14 15.457.816.148 1.113-.354 1.113-.785 0-.387-.014-1.412-.022-2.77-4.53.983-5.486-2.184-5.486-2.184-.74-1.883-1.81-2.383-1.81-2.383-1.478-1.012.113-.99.113-.99 1.635.114 2.495 1.677 2.495 1.677 1.453 2.49 3.812 1.77 4.74 1.354.15-1.053.57-1.77 1.035-2.178-3.617-.41-7.42-1.808-7.42-8.05 0-1.78.635-3.232 1.677-4.372-.168-.412-.727-2.068.16-4.31 0 0 1.367-.44 4.48 1.67 1.298-.36 2.692-.543 4.077-.548 1.384.005 2.778.187 4.08.547 3.11-2.108 4.474-1.67 4.474-1.67.89 2.244.33 3.9.162 4.311 1.044 1.14 1.675 2.593 1.675 4.37 0 6.26-3.808 7.637-7.437 8.04.585.503 1.106 1.498 1.106 3.017 0 2.178-.02 3.934-.02 4.47 0 .433.292.94 1.12.78 6.466-2.156 11.13-8.258 11.13-15.452C32.58 7.295 25.286 0 16.29 0" fill="#FEFEFE" mask="url(#b)"/></g></svg>